HIERARCHY
ROOT Junyuan_V1:Solving:Hips
{
	OFFSET 0.000000 0.000000 0.000000
	CHANNELS 6 Xposition Yposition Zposition Xrotation Yrotation Zrotation
	JOINT Junyuan_V1:Solving:Spine
	{
		OFFSET 0.000000 -11.180205 2.228564
		CHANNELS 6 Xposition Yposition Zposition Xrotation Yrotation Zrotation
		JOINT Junyuan_V1:Solving:Spine1
		{
			OFFSET 0.000000 -8.682996 1.531049
			CHANNELS 6 Xposition Yposition Zposition Xrotation Yrotation Zrotation
			JOINT Junyuan_V1:Solving:Spine2
			{
				OFFSET 0.000000 -8.783394 0.768450
				CHANNELS 6 Xposition Yposition Zposition Xrotation Yrotation Zrotation
				JOINT Junyuan_V1:Solving:Spine3
				{
					OFFSET 0.000000 -8.816944 0.000000
					CHANNELS 6 Xposition Yposition Zposition Xrotation Yrotation Zrotation
					JOINT Junyuan_V1:Solving:Neck
					{
						OFFSET 0.000000 -11.336071 -1.133605
						CHANNELS 6 Xposition Yposition Zposition Xrotation Yrotation Zrotation
						JOINT Junyuan_V1:Solving:Neck1
						{
							OFFSET 0.000000 -7.643246 -0.668695
							CHANNELS 6 Xposition Yposition Zposition Xrotation Yrotation Zrotation
							JOINT Junyuan_V1:Solving:Head
							{
								OFFSET 0.000000 -7.555870 -1.332303
								CHANNELS 6 Xposition Yposition Zposition Xrotation Yrotation Zrotation
								JOINT Junyuan_V1:Solving:HeadEnd
								{
									OFFSET 0.000000 -9.728081 0.000002
									CHANNELS 6 Xposition Yposition Zposition Xrotation Yrotation Zrotation
									End Site
									{
										OFFSET 0.000000 -9.728081 0.000002
									}
								}
							}
						}
					}
					JOINT Junyuan_V1:Solving:RightShoulder
					{
						OFFSET 0.000000 -8.097195 -5.270916
						CHANNELS 6 Xposition Yposition Zposition Xrotation Yrotation Zrotation
						JOINT Junyuan_V1:Solving:RightArm
						{
							OFFSET -20.762394 -0.000008 0.000000
							CHANNELS 6 Xposition Yposition Zposition Xrotation Yrotation Zrotation
							JOINT Junyuan_V1:Solving:RightForeArm
							{
								OFFSET -29.048946 -0.000008 0.000000
								CHANNELS 6 Xposition Yposition Zposition Xrotation Yrotation Zrotation
								JOINT Junyuan_V1:Solving:RightHand
								{
									OFFSET -22.031235 -0.000008 0.000000
									CHANNELS 6 Xposition Yposition Zposition Xrotation Yrotation Zrotation
									JOINT Junyuan_V1:Solving:RightHandThumb1
									{
										OFFSET -3.579254 2.890213 -2.661497
										CHANNELS 6 Xposition Yposition Zposition Xrotation Yrotation Zrotation
										End Site
										{
											OFFSET -5.229485 0.000000 -5.277840
										}
									}
									JOINT Junyuan_V1:Solving:RightHandMiddle1
									{
										OFFSET -9.544678 -0.000004 0.061184
										CHANNELS 6 Xposition Yposition Zposition Xrotation Yrotation Zrotation
										End Site
										{
											OFFSET -7.429878 -0.000004 0.000000
										}
									}
								}
							}
						}
					}
					JOINT Junyuan_V1:Solving:LeftShoulder
					{
						OFFSET 0.000000 -8.097195 -5.270916
						CHANNELS 6 Xposition Yposition Zposition Xrotation Yrotation Zrotation
						JOINT Junyuan_V1:Solving:LeftArm
						{
							OFFSET 20.762394 -0.000008 0.000000
							CHANNELS 6 Xposition Yposition Zposition Xrotation Yrotation Zrotation
							JOINT Junyuan_V1:Solving:LeftForeArm
							{
								OFFSET 29.048946 -0.000008 0.000000
								CHANNELS 6 Xposition Yposition Zposition Xrotation Yrotation Zrotation
								JOINT Junyuan_V1:Solving:LeftHand
								{
									OFFSET 22.031235 -0.000008 0.000000
									CHANNELS 6 Xposition Yposition Zposition Xrotation Yrotation Zrotation
									JOINT Junyuan_V1:Solving:LeftHandThumb1
									{
										OFFSET 3.579254 2.890213 -2.661497
										CHANNELS 6 Xposition Yposition Zposition Xrotation Yrotation Zrotation
										End Site
										{
											OFFSET 5.229485 0.000000 -5.277840
										}
									}
									JOINT Junyuan_V1:Solving:LeftHandMiddle1
									{
										OFFSET 9.544678 -0.000004 0.061184
										CHANNELS 6 Xposition Yposition Zposition Xrotation Yrotation Zrotation
										End Site
										{
											OFFSET 7.429878 -0.000004 0.000000
										}
									}
								}
							}
						}
					}
				}
			}
		}
	}
	JOINT Junyuan_V1:Solving:RightUpLeg
	{
		OFFSET -10.825166 0.000000 0.000000
		CHANNELS 6 Xposition Yposition Zposition Xrotation Yrotation Zrotation
		JOINT Junyuan_V1:Solving:RightLeg
		{
			OFFSET 0.000000 43.678444 -0.000006
			CHANNELS 6 Xposition Yposition Zposition Xrotation Yrotation Zrotation
			JOINT Junyuan_V1:Solving:RightFoot
			{
				OFFSET 0.000000 36.488441 -0.000006
				CHANNELS 6 Xposition Yposition Zposition Xrotation Yrotation Zrotation
				JOINT Junyuan_V1:Solving:RightForeFoot
				{
					OFFSET 0.000000 3.967834 -0.000000
					CHANNELS 6 Xposition Yposition Zposition Xrotation Yrotation Zrotation
					JOINT Junyuan_V1:Solving:RightToeBase
					{
						OFFSET 0.000000 0.000000 -15.539299
						CHANNELS 6 Xposition Yposition Zposition Xrotation Yrotation Zrotation
						JOINT Junyuan_V1:Solving:RightToeBaseEnd
						{
							OFFSET 0.000000 0.000000 -3.486985
							CHANNELS 6 Xposition Yposition Zposition Xrotation Yrotation Zrotation
							End Site
							{
								OFFSET 0.000000 -3.486992 0.000000
							}
						}
					}
				}
			}
		}
	}
	JOINT Junyuan_V1:Solving:LeftUpLeg
	{
		OFFSET 10.825166 0.000000 0.000000
		CHANNELS 6 Xposition Yposition Zposition Xrotation Yrotation Zrotation
		JOINT Junyuan_V1:Solving:LeftLeg
		{
			OFFSET 0.000000 43.678444 -0.000006
			CHANNELS 6 Xposition Yposition Zposition Xrotation Yrotation Zrotation
			JOINT Junyuan_V1:Solving:LeftFoot
			{
				OFFSET 0.000000 36.488441 -0.000006
				CHANNELS 6 Xposition Yposition Zposition Xrotation Yrotation Zrotation
				JOINT Junyuan_V1:Solving:LeftForeFoot
				{
					OFFSET 0.000000 3.967834 -0.000000
					CHANNELS 6 Xposition Yposition Zposition Xrotation Yrotation Zrotation
					JOINT Junyuan_V1:Solving:LeftToeBase
					{
						OFFSET 0.000000 0.000000 -15.539299
						CHANNELS 6 Xposition Yposition Zposition Xrotation Yrotation Zrotation
						JOINT Junyuan_V1:Solving:LeftToeBaseEnd
						{
							OFFSET 0.000000 0.000000 -3.974441
							CHANNELS 6 Xposition Yposition Zposition Xrotation Yrotation Zrotation
							End Site
							{
								OFFSET 0.000000 -3.974442 0.000000
							}
						}
					}
				}
			}
		}
	}
}
MOTION
Frames: 5
Frame Time: 0.041667
3.481047 -135.453796 -89.502510 87.960023 5.210704 0.557538 -0.000002 -11.180183 2.228572 10.761459 -0.108078 -0.608013 0.000002 -8.682975 1.531050 -0.597321 -0.012555 -0.057936 -0.000001 -8.783379 0.768445 -2.006317 -1.574508 -0.151337 -0.000001 -8.816939 0.000017 -1.154949 0.259050 0.164885 0.000002 -11.336089 -1.133610 -16.352637 -3.814267 1.451638 -0.000000 -7.643215 -0.668696 2.617493 0.580599 0.451111 -0.000000 -7.555900 -1.332331 9.262167 -0.057771 0.531068 0.000000 -9.728065 0.000014 -0.000000 -0.000000 -0.000000 0.000001 -8.097218 -5.270925 -0.000008 20.681234 15.378869 -20.762381 0.000002 -0.000022 -10.282467 -42.836990 -97.513784 -29.048956 -0.000011 -0.000059 -9.734754 -28.232667 -4.639716 -22.031219 -0.000012 -0.000016 1.173318 8.355846 -8.022283 -3.579268 2.890215 -2.661488 0.000008 -0.000000 0.000002 -9.544678 -0.000013 0.061160 0.000001 0.000001 -0.000000 0.000001 -8.097221 -5.270925 -0.000011 -22.044085 -14.345501 20.762386 -0.000015 -0.000005 -7.066666 59.198090 85.627213 29.048925 0.000001 0.000013 -4.041287 32.937539 2.199935 22.031237 -0.000016 0.000013 -0.205889 -5.721419 -2.064250 3.579259 2.890213 -2.661494 0.000014 -0.000005 -0.000004 9.544672 -0.000004 0.061183 0.000011 -0.000002 0.000002 -10.825166 0.000012 0.000003 4.951500 -0.371536 -4.484628 0.000002 43.678436 -0.000017 5.451517 0.000000 0.000001 -0.000001 36.488426 -0.000017 -2.948438 14.414498 -2.620545 -0.000007 3.967827 -0.000008 0.000000 -0.000003 -0.000000 -0.000007 0.000016 -15.539310 2.853554 -0.000002 0.000001 0.000006 -0.000007 -3.486986 0.000001 0.000002 0.000001 10.825166 -0.000006 0.000001 6.256168 -5.337729 -3.482942 -0.000001 43.678432 -0.000025 2.561338 0.000000 0.000000 0.000000 36.488449 0.000003 3.260104 1.596691 1.838393 -0.000001 3.967842 0.000015 0.000000 0.000000 -0.000000 -0.000002 0.000009 -15.539303 -9.391921 0.000000 0.000000 -0.000002 -0.000008 -3.974467 0.000000 0.000000 0.000000 
3.414484 -135.391205 -89.489349 87.969456 5.332589 0.566493 -0.000001 -11.180191 2.228585 10.792244 -0.116170 -0.614344 -0.000002 -8.682981 1.531053 -0.605748 -0.013031 -0.062001 -0.000001 -8.783401 0.768477 -2.004970 -1.597493 -0.135765 0.000000 -8.816946 -0.000031 -1.142403 0.252740 0.176680 0.000001 -11.336077 -1.133589 -16.309723 -3.839896 1.483221 0.000000 -7.643250 -0.668707 2.594048 0.543731 0.420599 -0.000000 -7.555881 -1.332296 9.253913 -0.056753 0.514037 -0.000002 -9.728088 0.000038 -0.000000 0.000000 -0.000000 -0.000001 -8.097206 -5.270901 -0.000011 20.589993 15.511904 -20.762403 0.000008 0.000015 -10.157492 -43.841075 -97.746475 -29.048939 -0.000018 0.000005 -8.857325 -29.512168 -4.389675 -22.031218 -0.000013 0.000013 1.394678 8.863134 -8.979449 -3.579276 2.890200 -2.661490 0.000004 -0.000000 0.000001 -9.544701 -0.000012 0.061205 -0.000002 0.000000 0.000000 -0.000000 -8.097206 -5.270900 -0.000013 -21.972573 -14.270106 20.762388 -0.000034 0.000003 -7.278717 60.408898 86.016616 29.048964 -0.000007 -0.000006 -4.068825 33.315880 2.237466 22.031240 -0.000006 -0.000011 -0.149545 -5.850274 -1.466801 3.579313 2.890230 -2.661488 -0.000006 0.000009 -0.000002 9.544728 0.000020 0.061196 -0.000006 0.000003 0.000006 -10.825167 -0.000005 0.000020 4.843240 -0.619309 -4.515264 -0.000000 43.678452 -0.000042 5.745846 0.000000 0.000000 0.000001 36.488445 -0.000035 -3.262120 14.645143 -2.747941 -0.000005 3.967827 -0.000010 0.000000 0.000002 -0.000000 0.000005 -0.000011 -15.539311 2.817601 -0.000003 0.000001 -0.000010 -0.000007 -3.486995 0.000001 -0.000004 -0.000000 10.825168 0.000025 0.000009 6.061220 -5.493796 -3.551438 -0.000007 43.678452 0.000004 3.094489 0.000000 0.000000 -0.000005 36.488468 -0.000007 2.935982 1.614373 1.896182 0.000001 3.967819 0.000039 0.000002 0.000000 -0.000000 0.000006 -0.000012 -15.539289 -9.554077 0.000000 -0.000000 -0.000005 -0.000008 -3.974437 -0.000000 0.000000 -0.000000 
3.340010 -135.320190 -89.476707 87.966150 5.456168 0.572326 0.000005 -11.180219 2.228529 10.822656 -0.116559 -0.603535 0.000001 -8.682982 1.531059 -0.609561 -0.014487 -0.063651 0.000000 -8.783398 0.768415 -2.004659 -1.612017 -0.138805 0.000001 -8.816951 0.000013 -1.123176 0.249225 0.193725 -0.000002 -11.336065 -1.133533 -16.261398 -3.878213 1.524934 0.000001 -7.643258 -0.668682 2.557679 0.527892 0.395850 0.000001 -7.555855 -1.332291 9.229816 -0.055680 0.487029 0.000000 -9.728096 0.000036 0.000000 0.000000 0.000000 0.000001 -8.097214 -5.270852 -0.000013 20.459905 15.647671 -20.762392 0.000002 0.000000 -10.014116 -44.812622 -97.961230 -29.048960 -0.000025 -0.000002 -7.136087 -30.806325 -3.668659 -22.031233 -0.000018 -0.000005 1.304096 9.020903 -8.260928 -3.579266 2.890200 -2.661474 0.000004 -0.000003 0.000005 -9.544681 -0.000013 0.061203 0.000006 -0.000001 -0.000004 0.000000 -8.097210 -5.270837 -0.000013 -21.920913 -14.205787 20.762386 -0.000038 0.000009 -7.443866 61.657593 86.320170 29.048977 -0.000015 0.000007 -3.867307 33.775122 2.152250 22.031254 -0.000023 0.000007 -0.082626 -5.934896 -0.799069 3.579283 2.890196 -2.661498 0.000004 0.000005 -0.000002 9.544717 -0.000015 0.061186 -0.000005 0.000003 0.000002 -10.825162 -0.000012 -0.000018 4.733767 -0.562243 -4.533381 -0.000002 43.678455 0.000020 6.129124 -0.000000 -0.000000 -0.000003 36.488426 0.000028 -3.594382 14.530963 -2.886289 0.000003 3.967827 -0.000006 0.000000 -0.000003 -0.000001 0.000013 0.000008 -15.539322 2.619208 -0.000000 0.000003 -0.000000 -0.000007 -3.486991 0.000002 0.000000 -0.000001 10.825169 -0.000014 -0.000009 5.886155 -5.302466 -3.613074 -0.000001 43.678448 0.000006 3.672825 -0.000000 0.000000 -0.000001 36.488438 0.000015 2.597463 1.297280 1.984715 0.000001 3.967827 0.000023 0.000002 0.000000 -0.000000 0.000001 0.000006 -15.539289 -9.718332 0.000000 -0.000000 0.000005 -0.000015 -3.974442 0.000000 0.000000 -0.000000 
3.261367 -135.248108 -89.458572 87.955078 5.583032 0.590949 -0.000002 -11.180194 2.228569 10.863195 -0.125645 -0.613502 -0.000002 -8.682989 1.531023 -0.611139 -0.013963 -0.066663 0.000002 -8.783382 0.768433 -1.999999 -1.629181 -0.132848 0.000001 -8.816939 0.000014 -1.107289 0.247468 0.228980 -0.000002 -11.336059 -1.133548 -16.229757 -3.917288 1.539428 0.000000 -7.643250 -0.668682 2.540306 0.483633 0.371169 -0.000000 -7.555824 -1.332314 9.240117 -0.055240 0.466157 0.000000 -9.728081 -0.000008 -0.000000 0.000000 0.000000 0.000001 -8.097210 -5.270904 -0.000010 20.350822 15.760728 -20.762392 -0.000021 0.000024 -9.925198 -45.864030 -98.143500 -29.048960 -0.000024 -0.000023 -5.621396 -31.998545 -2.985666 -22.031225 -0.000021 0.000003 1.004558 9.198786 -6.259599 -3.579237 2.890222 -2.661465 -0.000003 0.000003 0.000002 -9.544660 -0.000011 0.061185 -0.000003 0.000001 0.000003 0.000004 -8.097210 -5.270903 -0.000012 -21.890609 -14.155813 20.762394 -0.000011 0.000044 -7.589116 62.923213 86.541680 29.048950 -0.000037 -0.000007 -3.436719 34.366814 1.941598 22.031244 -0.000014 -0.000001 -0.002010 -6.188370 -0.018536 3.579248 2.890220 -2.661494 -0.000000 -0.000009 0.000002 9.544690 -0.000002 0.061171 -0.000002 -0.000001 0.000006 -10.825165 0.000016 -0.000038 4.599760 -0.849724 -4.588587 0.000000 43.678444 0.000000 6.517703 -0.000000 0.000001 -0.000001 36.488453 0.000015 -3.919652 14.728195 -2.982320 0.000001 3.967827 -0.000007 0.000000 0.000000 -0.000001 0.000010 0.000008 -15.539302 2.470364 -0.000003 0.000002 0.000012 -0.000007 -3.486980 0.000001 0.000004 0.000001 10.825163 -0.000001 0.000019 5.642505 -5.218520 -3.693422 -0.000001 43.678448 -0.000049 4.400586 0.000000 0.000001 0.000002 36.488441 -0.000030 2.180905 1.070169 2.043628 0.000003 3.967827 -0.000013 0.000000 0.000000 -0.000000 0.000002 -0.000001 -15.539301 -9.861233 0.000000 -0.000000 0.000002 -0.000008 -3.974414 -0.000000 0.000000 -0.000000 
3.182737 -135.180237 -89.439133 87.952462 5.702714 0.600356 -0.000002 -11.180221 2.228539 10.906230 -0.143708 -0.619021 -0.000000 -8.682996 1.531038 -0.609822 -0.014642 -0.061854 -0.000000 -8.783380 0.768453 -1.998877 -1.631364 -0.118812 0.000001 -8.816922 0.000027 -1.097761 0.248964 0.251627 0.000001 -11.336044 -1.133619 -16.207298 -3.967947 1.560195 -0.000000 -7.643260 -0.668675 2.522223 0.462613 0.360391 -0.000000 -7.555879 -1.332325 9.233197 -0.053288 0.446124 0.000001 -9.728065 0.000033 -0.000000 0.000000 0.000000 -0.000002 -8.097168 -5.270873 -0.000012 20.251540 15.868660 -20.762400 -0.000031 0.000004 -9.882176 -46.634076 -98.277236 -29.048977 -0.000015 -0.000037 -5.013885 -32.942477 -2.731461 -22.031265 -0.000009 -0.000043 0.718620 9.601538 -4.300560 -3.579278 2.890193 -2.661517 -0.000004 0.000002 -0.000001 -9.544711 -0.000018 0.061174 -0.000001 0.000002 -0.000004 -0.000003 -8.097168 -5.270873 -0.000014 -21.843862 -14.097880 20.762400 -0.000006 0.000027 -7.657332 64.116659 86.666269 29.048960 -0.000020 -0.000031 -2.754521 35.018192 1.581487 22.031260 -0.000010 0.000011 0.097534 -6.442392 0.869250 3.579273 2.890211 -2.661506 0.000003 0.000003 -0.000005 9.544685 -0.000000 0.061171 -0.000006 -0.000006 -0.000001 -10.825165 -0.000020 -0.000023 4.462858 -0.933269 -4.630408 -0.000002 43.678455 -0.000000 6.912981 -0.000000 0.000000 -0.000002 36.488434 0.000034 -4.230040 14.723764 -3.054849 0.000014 3.967819 0.000013 0.000000 0.000004 -0.000002 0.000003 -0.000009 -15.539283 2.546212 0.000000 0.000001 0.000010 -0.000007 -3.486987 0.000002 0.000000 0.000001 10.825159 -0.000013 -0.000001 5.329179 -5.109020 -3.769633 0.000001 43.678455 0.000013 5.250066 0.000000 0.000000 -0.000002 36.488415 0.000020 1.734043 0.832247 2.073450 -0.000002 3.967827 0.000015 0.000000 0.000000 -0.000000 -0.000003 -0.000002 -15.539299 -9.992834 0.000000 0.000000 -0.000002 -0.000008 -3.974423 -0.000000 0.000000 -0.000000 
